<svg width="3016" height="500" viewBox="0 0 3016 500" fill="none" xmlns="http://www.w3.org/2000/svg">
<path d="M2817.32 394.738H3015.02V491.23H2817.32V394.738Z" fill="#0A2D57"/>
<path d="M2669.01 491.219H2550.88L2515.21 394.728H2331.58L2295.91 491.219H2177.78L2372.52 8.7627H2474.27L2669.01 491.219ZM2796.85 491.218H2688.67V8.76172H2796.85V491.218ZM2423.39 177.566C2423.39 177.566 2417.74 213.658 2402.4 228.998C2387.08 244.313 2351.09 249.977 2350.96 249.996C2351.09 250.016 2387.08 255.681 2402.4 270.994C2417.71 286.314 2423.38 322.326 2423.39 322.425C2423.41 322.324 2429.07 286.313 2444.39 270.994C2459.71 255.677 2495.72 250.013 2495.82 249.996C2495.74 249.983 2459.71 244.32 2444.39 228.998C2429.05 213.658 2423.39 177.566 2423.39 177.566Z" fill="url(#paint0_linear_225_493)"/>
<path d="M2159.29 8.76953V491.226H2049.35V8.76953H2159.29Z" fill="#0A2D57"/>
<path d="M1865.76 391.813C1921.9 391.813 1960.5 361.988 1960.5 361.988L2007.28 455.556C2007.28 455.556 1953.48 500 1848.8 500C1712.54 500 1587.4 388.889 1587.4 250.877C1587.4 112.281 1711.96 0 1848.8 0C1953.48 0 2007.28 44.4444 2007.28 44.4444L1960.5 138.012C1960.5 138.012 1921.9 108.187 1865.76 108.187C1755.23 108.187 1706.7 185.38 1706.7 249.708C1706.7 314.62 1755.23 391.813 1865.76 391.813Z" fill="#0A2D57"/>
<path d="M1074.57 249.708C1074.57 108.772 1185.09 0 1317.84 0C1451.76 0 1560.53 108.772 1560.53 249.708C1560.53 390.643 1456.44 500 1317.84 500C1175.15 500 1074.57 390.643 1074.57 249.708ZM1193.28 249.708C1193.28 321.637 1227.78 393.567 1317.84 393.567C1405.56 393.567 1441.82 321.637 1441.82 249.708C1441.82 177.778 1403.22 105.848 1317.84 105.848C1233.05 105.848 1193.28 177.778 1193.28 249.708Z" fill="#0A2D57"/>
<path d="M881.064 0C968.783 0 1030.77 45.614 1030.77 45.614L986.327 133.333C986.327 133.333 938.373 100 888.666 100C851.239 100 831.356 116.959 831.356 143.275C831.356 170.175 876.97 189.474 931.941 212.866C985.742 235.673 1044.81 281.287 1044.81 344.444C1044.81 459.649 957.087 500 862.935 500C750.069 500 681.648 436.257 681.648 436.257L736.619 343.86C736.619 343.86 800.947 398.246 854.748 398.246C878.724 398.246 924.338 395.906 924.338 350.877C924.338 315.789 872.876 300 815.566 271.345C757.672 242.69 723.754 197.661 723.754 147.368C723.754 57.3099 803.286 0 881.064 0Z" fill="#0A2D57"/>
<path d="M258.979 -0.0078125C265.657 -0.00784191 268.997 -0.00780537 271.652 1.41504C273.886 2.61192 275.887 4.75571 276.927 7.06641C278.163 9.81353 277.948 12.9356 277.517 19.1787C272.903 85.9449 244.329 149.064 196.701 196.69C149.074 244.317 85.9538 272.89 19.1865 277.504C12.9436 277.935 9.82229 278.15 7.0752 276.914C4.76433 275.874 2.61981 273.873 1.42285 271.64C8.8039e-05 268.984 -2.93148e-05 265.645 0 258.966L0.000976562 205.712C0.00100602 199 0.000662145 195.643 1.14551 193.214C2.22572 190.922 3.62771 189.367 5.79688 188.057C8.09594 186.668 11.7869 186.288 19.168 185.525C61.5938 181.144 101.459 162.313 131.892 131.881C162.324 101.449 181.154 61.5842 185.536 19.1592C186.298 11.7785 186.68 8.08805 188.068 5.78906C189.378 3.62007 190.933 2.21786 193.225 1.1377C195.654 -0.0071534 199.011 -0.00778294 205.724 -0.0078125H258.979Z" fill="#0A2D57"/>
<path d="M0.00488281 241.019C0.00485285 234.34 0.00478936 231 1.42773 228.345C2.62464 226.111 4.76837 224.11 7.0791 223.07C9.82626 221.834 12.9482 222.049 19.1914 222.48C85.9588 227.094 149.078 255.668 196.706 303.295C244.334 350.922 272.908 414.04 277.521 480.807C277.953 487.049 278.168 490.171 276.932 492.918C275.892 495.229 273.891 497.372 271.657 498.569C269.002 499.992 265.662 499.992 258.983 499.992H205.728C199.015 499.992 195.659 499.992 193.229 498.848C190.937 497.767 189.382 496.365 188.072 494.195C186.684 491.896 186.303 488.206 185.541 480.825C181.159 438.4 162.329 398.535 131.896 368.104C101.464 337.672 61.5986 318.842 19.1729 314.46C11.7918 313.698 8.10082 313.316 5.80176 311.928C3.63256 310.618 2.23061 309.063 1.15039 306.771C0.00564773 304.341 0.00491293 300.985 0.00488281 294.273V241.019ZM0.00390625 435.093C0.00390625 399.255 29.0568 370.202 64.8955 370.202C100.734 370.202 129.788 399.255 129.788 435.093C129.788 470.931 100.734 499.983 64.8955 499.983C29.0569 499.983 0.00398887 470.931 0.00390625 435.093Z" fill="url(#paint1_linear_225_493)"/>
<path d="M241.021 499.991C234.343 499.991 231.003 499.991 228.348 498.568C226.114 497.371 224.113 495.228 223.073 492.917C221.837 490.17 222.052 487.048 222.483 480.805C227.097 414.038 255.671 350.92 303.299 303.293C350.926 255.666 414.046 227.093 480.814 222.48C487.056 222.048 490.178 221.833 492.925 223.069C495.236 224.109 497.38 226.11 498.577 228.344C500 230.999 500 234.339 500 241.018L500 294.271C500 300.984 499.999 304.34 498.855 306.77C497.774 309.062 496.372 310.617 494.203 311.927C491.904 313.315 488.213 313.696 480.832 314.458C438.406 318.84 398.541 337.671 368.108 368.103C337.676 398.534 318.846 438.399 314.464 480.824C313.702 488.205 313.32 491.895 311.932 494.194C310.622 496.363 309.067 497.766 306.775 498.846C304.346 499.991 300.989 499.991 294.276 499.991L241.021 499.991ZM435.099 499.992C399.26 499.992 370.206 470.94 370.206 435.102C370.206 399.263 399.26 370.211 435.099 370.211C470.937 370.211 499.99 399.263 499.99 435.102C499.99 470.94 470.937 499.992 435.099 499.992Z" fill="#0A2D57"/>
<path fill-rule="evenodd" clip-rule="evenodd" d="M294.268 -0.00390625C300.981 -0.00387622 304.338 -0.00422399 306.767 1.14062C309.06 2.22084 310.614 3.62377 311.924 5.79297C313.312 8.09199 313.694 11.7822 314.456 19.1631C318.838 61.5882 337.668 101.453 368.1 131.885C398.533 162.317 438.398 181.147 480.824 185.528C488.205 186.291 491.896 186.672 494.195 188.061C496.364 189.371 497.766 190.926 498.846 193.218C499.991 195.647 499.991 199.004 499.991 205.716L499.992 258.97C499.992 265.649 499.992 268.988 498.569 271.644C497.372 273.877 495.228 275.878 492.917 276.918C490.17 278.154 487.048 277.939 480.805 277.508C414.038 272.894 350.918 244.32 303.291 196.693C255.663 149.067 227.089 85.9479 222.475 19.1816C222.044 12.9388 221.829 9.81738 223.065 7.07031C224.105 4.75952 226.106 2.61587 228.34 1.41895C230.995 -0.00397301 234.334 -0.00393613 241.013 -0.00390625H294.268ZM435.106 -0.0078125C435.106 35.8318 464.157 64.8826 499.998 64.8828C464.157 64.883 435.103 93.9367 435.103 129.776C435.103 93.9367 406.044 64.879 370.204 64.8789C406.044 64.8788 435.106 35.8319 435.106 -0.0078125Z" fill="url(#paint2_linear_225_493)"/>
<path d="M0.00585938 261.63C0.00172367 260.805 -4.1849e-06 259.919 0 258.966L0.000976562 205.712C0.000980901 204.723 0.00220006 203.808 0.00585938 202.957V261.63ZM258.979 -0.0078125C265.657 -0.00784191 268.997 -0.00780537 271.652 1.41504C273.886 2.61192 275.887 4.75571 276.927 7.06641C278.163 9.81353 277.948 12.9356 277.517 19.1787C272.903 85.9449 244.329 149.064 196.701 196.69C196.575 196.817 196.447 196.942 196.32 197.068L131.51 132.258C131.637 132.132 131.765 132.007 131.892 131.881C162.324 101.449 181.154 61.5842 185.536 19.1592C186.298 11.7785 186.68 8.08805 188.068 5.78906C189.378 3.62007 190.933 2.21786 193.225 1.1377C195.654 -0.0071534 199.011 -0.00778294 205.724 -0.0078125H258.979Z" fill="#0A2D57"/>
<ellipse cx="64.8997" cy="64.883" rx="64.8918" ry="64.8908" fill="#0A2D57"/>
<defs>
<linearGradient id="paint0_linear_225_493" x1="2142.44" y1="246.943" x2="2796.85" y2="249.99" gradientUnits="userSpaceOnUse">
<stop offset="0.0817308" stop-color="#4A98FF"/>
<stop offset="1" stop-color="#4BFFC0"/>
</linearGradient>
<linearGradient id="paint1_linear_225_493" x1="64.9137" y1="435.083" x2="446.589" y2="64.07" gradientUnits="userSpaceOnUse">
<stop stop-color="#4A98FF"/>
<stop offset="1" stop-color="#4BFFC0"/>
</linearGradient>
<linearGradient id="paint2_linear_225_493" x1="64.4857" y1="432.812" x2="434.064" y2="65.9919" gradientUnits="userSpaceOnUse">
<stop stop-color="#4A98FF"/>
<stop offset="1" stop-color="#4BFFC0"/>
</linearGradient>
</defs>
</svg>
