<svg width="4180" height="501" viewBox="0 0 4180 501" fill="none" xmlns="http://www.w3.org/2000/svg">
<path d="M1412.78 0.75C1419.46 0.749971 1422.8 0.750007 1425.45 2.17285C1427.69 3.36973 1429.69 5.51353 1430.73 7.82422C1431.96 10.5713 1431.75 13.6934 1431.32 19.9365C1426.7 86.7027 1398.13 149.821 1350.5 197.448C1302.87 245.075 1239.75 273.648 1172.99 278.262C1166.74 278.693 1163.62 278.908 1160.88 277.672C1158.57 276.632 1156.42 274.631 1155.22 272.397C1153.8 269.742 1153.8 266.402 1153.8 259.724L1153.8 206.47C1153.8 199.757 1153.8 196.401 1154.95 193.972C1156.03 191.679 1157.43 190.124 1159.6 188.814C1161.9 187.426 1165.59 187.046 1172.97 186.283C1215.39 181.901 1255.26 163.07 1285.69 132.639C1316.12 102.207 1334.96 62.342 1339.34 19.917C1340.1 12.5363 1340.48 8.84586 1341.87 6.54688C1343.18 4.37788 1344.73 2.97567 1347.03 1.89551C1349.45 0.750659 1352.81 0.75003 1359.52 0.75H1412.78Z" fill="#0A2D57"/>
<path d="M1153.81 241.776C1153.81 235.097 1153.81 231.758 1155.23 229.103C1156.43 226.869 1158.57 224.868 1160.88 223.828C1163.63 222.592 1166.75 222.807 1172.99 223.238C1239.76 227.852 1302.88 256.426 1350.51 304.053C1398.13 351.68 1426.71 414.798 1431.32 481.564C1431.75 487.807 1431.97 490.929 1430.73 493.676C1429.69 495.987 1427.69 498.13 1425.46 499.327C1422.8 500.75 1419.46 500.75 1412.78 500.75H1359.53C1352.82 500.75 1349.46 500.75 1347.03 499.605C1344.74 498.525 1343.18 497.122 1341.87 494.953C1340.48 492.654 1340.1 488.964 1339.34 481.583C1334.96 439.158 1316.13 399.293 1285.7 368.861C1255.27 338.43 1215.4 319.6 1172.97 315.218C1165.59 314.455 1161.9 314.074 1159.6 312.686C1157.43 311.376 1156.03 309.821 1154.95 307.528C1153.81 305.099 1153.81 301.743 1153.81 295.031V241.776ZM1153.8 435.851C1153.8 400.012 1182.86 370.96 1218.7 370.96C1254.54 370.96 1283.59 400.012 1283.59 435.851C1283.59 471.689 1254.54 500.741 1218.7 500.741C1182.86 500.741 1153.8 471.689 1153.8 435.851Z" fill="url(#paint0_linear_225_594)"/>
<path d="M1394.82 500.749C1388.14 500.749 1384.8 500.749 1382.14 499.326C1379.91 498.129 1377.91 495.985 1376.87 493.675C1375.63 490.928 1375.85 487.806 1376.28 481.562C1380.89 414.796 1409.47 351.678 1457.1 304.051C1504.72 256.424 1567.84 227.851 1634.61 223.237C1640.85 222.806 1643.97 222.591 1646.72 223.827C1649.03 224.867 1651.18 226.868 1652.37 229.102C1653.8 231.757 1653.8 235.097 1653.8 241.775L1653.8 295.029C1653.8 301.742 1653.8 305.098 1652.65 307.527C1651.57 309.82 1650.17 311.375 1648 312.685C1645.7 314.073 1642.01 314.454 1634.63 315.216C1592.2 319.598 1552.34 338.429 1521.91 368.86C1491.47 399.292 1472.64 439.157 1468.26 481.582C1467.5 488.963 1467.12 492.653 1465.73 494.952C1464.42 497.121 1462.86 498.523 1460.57 499.603C1458.14 500.748 1454.79 500.749 1448.07 500.749L1394.82 500.749ZM1588.9 500.75C1553.06 500.75 1524 471.697 1524 435.859C1524 400.021 1553.06 370.969 1588.9 370.969C1624.73 370.969 1653.79 400.021 1653.79 435.859C1653.79 471.697 1624.73 500.75 1588.9 500.75Z" fill="#0A2D57"/>
<path d="M1448.07 0.753906C1454.78 0.753936 1458.14 0.753589 1460.57 1.89844C1462.86 2.97866 1464.41 4.38158 1465.72 6.55078C1467.11 8.8498 1467.49 12.54 1468.26 19.9209C1472.64 62.346 1491.47 102.211 1521.9 132.643C1552.33 163.074 1592.2 181.904 1634.62 186.286C1642.01 187.048 1645.7 187.43 1648 188.818C1650.16 190.128 1651.57 191.683 1652.65 193.976C1653.79 196.405 1653.79 199.762 1653.79 206.474L1653.79 259.728C1653.79 266.406 1653.79 269.746 1652.37 272.401C1651.17 274.635 1649.03 276.636 1646.72 277.676C1643.97 278.912 1640.85 278.697 1634.61 278.266C1567.84 273.652 1504.72 245.078 1457.09 197.451C1409.46 149.824 1380.89 86.7057 1376.28 19.9395C1375.84 13.6966 1375.63 10.5752 1376.87 7.82812C1377.91 5.51733 1379.91 3.37369 1382.14 2.17676C1384.8 0.753839 1388.14 0.753876 1394.81 0.753906H1448.07ZM1588.91 0.75C1588.91 36.5897 1617.96 65.6405 1653.8 65.6406C1617.96 65.6408 1588.9 94.6945 1588.9 130.534C1588.9 94.6945 1559.85 65.6368 1524 65.6367C1559.85 65.6366 1588.91 36.5897 1588.91 0.75Z" fill="url(#paint1_linear_225_594)"/>
<path d="M1153.81 262.388C1153.8 261.563 1153.8 260.677 1153.8 259.724L1153.8 206.47C1153.8 205.481 1153.8 204.565 1153.81 203.715V262.388ZM1412.78 0.75C1419.46 0.749971 1422.8 0.750007 1425.45 2.17285C1427.69 3.36973 1429.69 5.51353 1430.73 7.82422C1431.96 10.5713 1431.75 13.6934 1431.32 19.9365C1426.7 86.7027 1398.13 149.821 1350.5 197.448C1350.38 197.575 1350.25 197.7 1350.12 197.826L1285.31 133.016C1285.44 132.89 1285.57 132.765 1285.69 132.639C1316.12 102.207 1334.96 62.342 1339.34 19.917C1340.1 12.5363 1340.48 8.84586 1341.87 6.54688C1343.18 4.37788 1344.73 2.97567 1347.03 1.89551C1349.45 0.750659 1352.81 0.75003 1359.52 0.75H1412.78Z" fill="#0A2D57"/>
<ellipse cx="1218.7" cy="65.6408" rx="64.8918" ry="64.8908" fill="#0A2D57"/>
<path d="M368.925 0.75V408.645H474.188V0.75H961.03V500.75H868.925V92.8553H763.662V500.75H671.557V92.8553H566.293V500.75H276.82V92.8553H184.714V500.75H92.6091V92.8553H0.503906V0.75H368.925Z" fill="#0A2D57"/>
<path d="M3982.24 395.488H4179.94V491.98H3982.24V395.488Z" fill="#0A2D57"/>
<path d="M3833.93 491.969H3715.8L3680.13 395.478H3496.5L3460.83 491.969H3342.7L3537.44 9.5127H3639.19L3833.93 491.969ZM3961.77 491.968H3853.59V9.51172H3961.77V491.968ZM3588.32 178.316C3588.32 178.316 3582.66 214.408 3567.32 229.748C3552 245.063 3516.01 250.727 3515.89 250.746C3516.01 250.766 3552 256.431 3567.32 271.744C3582.64 287.064 3588.3 323.076 3588.32 323.175C3588.33 323.074 3593.99 287.063 3609.31 271.744C3624.63 256.427 3660.64 250.763 3660.74 250.746C3660.66 250.733 3624.64 245.07 3609.31 229.748C3593.97 214.408 3588.32 178.316 3588.32 178.316Z" fill="url(#paint2_linear_225_594)"/>
<path d="M3324.21 9.51953V491.976H3214.27V9.51953H3324.21Z" fill="#0A2D57"/>
<path d="M3030.68 392.563C3086.82 392.563 3125.42 362.738 3125.42 362.738L3172.2 456.306C3172.2 456.306 3118.4 500.75 3013.72 500.75C2877.47 500.75 2752.32 389.639 2752.32 251.627C2752.32 113.031 2876.88 0.75 3013.72 0.75C3118.4 0.75 3172.2 45.1944 3172.2 45.1944L3125.42 138.762C3125.42 138.762 3086.82 108.937 3030.68 108.937C2920.16 108.937 2871.62 186.13 2871.62 250.458C2871.62 315.37 2920.16 392.563 3030.68 392.563Z" fill="#0A2D57"/>
<path d="M2239.49 250.458C2239.49 109.522 2350.02 0.75 2482.77 0.75C2616.68 0.75 2725.46 109.522 2725.46 250.458C2725.46 391.393 2621.36 500.75 2482.77 500.75C2340.08 500.75 2239.49 391.393 2239.49 250.458ZM2358.21 250.458C2358.21 322.387 2392.71 394.317 2482.77 394.317C2570.49 394.317 2606.74 322.387 2606.74 250.458C2606.74 178.528 2568.15 106.598 2482.77 106.598C2397.97 106.598 2358.21 178.528 2358.21 250.458Z" fill="#0A2D57"/>
<path d="M2045.99 0.75C2133.7 0.75 2195.69 46.364 2195.69 46.364L2151.25 134.083C2151.25 134.083 2103.3 100.75 2053.59 100.75C2016.16 100.75 1996.28 117.709 1996.28 144.025C1996.28 170.925 2041.89 190.224 2096.86 213.616C2150.66 236.423 2209.73 282.037 2209.73 345.194C2209.73 460.399 2122.01 500.75 2027.86 500.75C1914.99 500.75 1846.57 437.007 1846.57 437.007L1901.54 344.61C1901.54 344.61 1965.87 398.996 2019.67 398.996C2043.65 398.996 2089.26 396.656 2089.26 351.627C2089.26 316.54 2037.8 300.75 1980.49 272.095C1922.59 243.44 1888.68 198.411 1888.68 148.118C1888.68 58.0599 1968.21 0.75 2045.99 0.75Z" fill="#0A2D57"/>
<defs>
<linearGradient id="paint0_linear_225_594" x1="1218.71" y1="435.841" x2="1600.39" y2="64.8278" gradientUnits="userSpaceOnUse">
<stop stop-color="#4A98FF"/>
<stop offset="1" stop-color="#4BFFC0"/>
</linearGradient>
<linearGradient id="paint1_linear_225_594" x1="1218.29" y1="433.57" x2="1587.86" y2="66.7497" gradientUnits="userSpaceOnUse">
<stop stop-color="#4A98FF"/>
<stop offset="1" stop-color="#4BFFC0"/>
</linearGradient>
<linearGradient id="paint2_linear_225_594" x1="3307.36" y1="247.693" x2="3961.77" y2="250.74" gradientUnits="userSpaceOnUse">
<stop offset="0.0817308" stop-color="#4A98FF"/>
<stop offset="1" stop-color="#4BFFC0"/>
</linearGradient>
</defs>
</svg>
