<svg width="500" height="500" viewBox="0 0 500 500" fill="none" xmlns="http://www.w3.org/2000/svg">
<path d="M258.979 0C265.657 -2.94108e-05 268.997 7.13494e-06 271.652 1.42285C273.886 2.61973 275.887 4.76353 276.927 7.07422C278.163 9.82134 277.948 12.9434 277.517 19.1865C272.903 85.9527 244.329 149.071 196.701 196.698C149.074 244.325 85.9538 272.898 19.1865 277.512C12.9436 277.943 9.82229 278.158 7.0752 276.922C4.76433 275.882 2.61981 273.881 1.42285 271.647C8.8039e-05 268.992 -2.93148e-05 265.652 0 258.974L0.000976562 205.72C0.00100602 199.007 0.000662145 195.651 1.14551 193.222C2.22572 190.929 3.62771 189.374 5.79688 188.064C8.09594 186.676 11.7869 186.296 19.168 185.533C61.5938 181.151 101.459 162.32 131.892 131.889C162.324 101.457 181.154 61.592 185.536 19.167C186.298 11.7863 186.68 8.09586 188.068 5.79688C189.378 3.62788 190.933 2.22567 193.225 1.14551C195.654 0.000659096 199.011 2.95583e-05 205.724 0H258.979Z" fill="#0A2D57"/>
<path d="M0.00488281 241.026C0.00485285 234.347 0.00478936 231.008 1.42773 228.353C2.62464 226.119 4.76837 224.118 7.0791 223.078C9.82626 221.842 12.9482 222.057 19.1914 222.488C85.9588 227.102 149.078 255.676 196.706 303.303C244.334 350.93 272.908 414.048 277.521 480.814C277.953 487.057 278.168 490.179 276.932 492.926C275.892 495.237 273.891 497.38 271.657 498.577C269.002 500 265.662 500 258.983 500H205.728C199.015 500 195.659 500 193.229 498.855C190.937 497.775 189.382 496.372 188.072 494.203C186.684 491.904 186.303 488.214 185.541 480.833C181.159 438.408 162.329 398.543 131.896 368.111C101.464 337.68 61.5986 318.85 19.1729 314.468C11.7918 313.705 8.10082 313.324 5.80176 311.936C3.63256 310.626 2.23061 309.071 1.15039 306.778C0.00564773 304.349 0.00491293 300.993 0.00488281 294.281V241.026ZM0.00390625 435.101C0.00390625 399.262 29.0568 370.21 64.8955 370.21C100.734 370.21 129.788 399.262 129.788 435.101C129.788 470.939 100.734 499.991 64.8955 499.991C29.0569 499.991 0.00398887 470.939 0.00390625 435.101Z" fill="url(#paint0_linear_225_474)"/>
<path d="M241.021 499.999C234.343 499.999 231.003 499.999 228.348 498.576C226.114 497.379 224.113 495.235 223.073 492.925C221.837 490.178 222.052 487.056 222.483 480.812C227.097 414.046 255.671 350.928 303.299 303.301C350.926 255.674 414.046 227.101 480.814 222.487C487.056 222.056 490.178 221.841 492.925 223.077C495.236 224.117 497.38 226.118 498.577 228.352C500 231.007 500 234.347 500 241.025L500 294.279C500 300.992 499.999 304.348 498.855 306.777C497.774 309.07 496.372 310.625 494.203 311.935C491.904 313.323 488.213 313.704 480.832 314.466C438.406 318.848 398.541 337.679 368.108 368.11C337.676 398.542 318.846 438.407 314.464 480.832C313.702 488.213 313.32 491.903 311.932 494.202C310.622 496.371 309.067 497.773 306.775 498.853C304.346 499.998 300.989 499.999 294.276 499.999L241.021 499.999ZM435.099 500C399.26 500 370.206 470.947 370.206 435.109C370.206 399.271 399.26 370.219 435.099 370.219C470.937 370.219 499.99 399.271 499.99 435.109C499.99 470.947 470.937 500 435.099 500Z" fill="#0A2D57"/>
<path d="M294.269 0.00390625C300.981 0.00393628 304.338 0.00358851 306.768 1.14844C309.06 2.22866 310.614 3.63158 311.924 5.80078C313.312 8.0998 313.694 11.79 314.456 19.1709C318.838 61.596 337.668 101.461 368.101 131.893C398.533 162.324 438.398 181.154 480.824 185.536C488.205 186.298 491.896 186.68 494.195 188.068C496.364 189.378 497.766 190.933 498.847 193.226C499.991 195.655 499.991 199.012 499.991 205.724L499.992 258.978C499.992 265.656 499.992 268.996 498.569 271.651C497.372 273.885 495.228 275.886 492.917 276.926C490.17 278.162 487.048 277.947 480.806 277.516C414.038 272.902 350.919 244.328 303.291 196.701C255.663 149.074 227.089 85.9557 222.476 19.1895C222.044 12.9466 221.829 9.82519 223.065 7.07812C224.106 4.76733 226.106 2.62369 228.34 1.42676C230.995 0.00383949 234.335 0.00387637 241.014 0.00390625H294.269ZM435.106 0C435.106 35.8397 464.158 64.8905 499.998 64.8906C464.158 64.8908 435.104 93.9445 435.104 129.784C435.104 93.9445 406.045 64.8868 370.204 64.8867C406.045 64.8866 435.106 35.8397 435.106 0Z" fill="url(#paint1_linear_225_474)"/>
<path d="M0.00585938 261.638C0.00172367 260.813 -4.1849e-06 259.927 0 258.974L0.000976562 205.72C0.000980901 204.731 0.00220006 203.815 0.00585938 202.965V261.638ZM258.979 0C265.657 -2.94108e-05 268.997 7.13494e-06 271.652 1.42285C273.886 2.61973 275.887 4.76353 276.927 7.07422C278.163 9.82134 277.948 12.9434 277.517 19.1865C272.903 85.9527 244.329 149.071 196.701 196.698C196.575 196.825 196.447 196.95 196.32 197.076L131.51 132.266C131.636 132.14 131.765 132.015 131.892 131.889C162.324 101.457 181.154 61.592 185.536 19.167C186.298 11.7863 186.68 8.09586 188.068 5.79688C189.378 3.62788 190.933 2.22567 193.225 1.14551C195.654 0.000659096 199.011 2.95583e-05 205.724 0H258.979Z" fill="#0A2D57"/>
<ellipse cx="64.8997" cy="64.8908" rx="64.8918" ry="64.8908" fill="#0A2D57"/>
<defs>
<linearGradient id="paint0_linear_225_474" x1="64.9137" y1="435.091" x2="446.589" y2="64.0778" gradientUnits="userSpaceOnUse">
<stop stop-color="#4A98FF"/>
<stop offset="1" stop-color="#4BFFC0"/>
</linearGradient>
<linearGradient id="paint1_linear_225_474" x1="64.4857" y1="432.82" x2="434.064" y2="65.9997" gradientUnits="userSpaceOnUse">
<stop stop-color="#4A98FF"/>
<stop offset="1" stop-color="#4BFFC0"/>
</linearGradient>
</defs>
</svg>
