<svg width="3417" height="572" viewBox="0 0 3417 572" fill="none" xmlns="http://www.w3.org/2000/svg">
<path d="M269.641 217.21C271.098 198.055 299.185 198.055 300.643 217.21C302.827 245.918 325.641 268.732 354.349 270.916C373.504 272.374 373.504 300.461 354.349 301.918C325.641 304.103 302.827 326.917 300.643 355.624C299.185 374.779 271.098 374.779 269.641 355.624C267.456 326.916 244.642 304.103 215.935 301.918C196.78 300.461 196.78 272.374 215.935 270.916C244.642 268.732 267.456 245.918 269.641 217.21Z" fill="url(#paint0_linear_97_594)"/>
<path d="M355.596 59.7884H305.466C261.89 59.7884 242.009 30.7688 198.892 30.7687C162.744 30.7685 115.554 30.7686 86.5431 30.7686L65.3992 30.7687C31.9469 30.7687 33.9137 77.2002 65.3992 77.2002H47.2953C17.5626 77.2002 18.647 123.632 47.2953 123.632H97.6953C84.1282 123.632 61.3898 123.668 36.3795 123.632C2.73005 123.678 1.82102 170.071 36.3825 170.063H54.7611C23.8497 170.295 22.1873 216.495 54.7611 216.495H198.892C213.277 216.495 213.498 233.906 198.892 233.906V278.403C246.499 276.985 274.42 240.869 276.278 207.789C276.821 198.115 283.131 198.115 289.787 198.115H289.82H355.598V139.435L355.596 59.7884Z" fill="white"/>
<path d="M65.3992 77.2002C33.9137 77.2002 31.9469 30.7687 65.3992 30.7687C84.6035 30.7687 151.312 30.7684 198.892 30.7687C242.009 30.7688 261.89 59.7884 305.466 59.7884C320.152 59.7884 333.438 59.7884 355.596 59.7884L355.598 139.435V198.115C355.598 198.115 309.868 198.115 289.82 198.115C283.152 198.115 276.822 198.099 276.278 207.789C274.42 240.869 246.499 276.985 198.892 278.403V233.906C213.498 233.906 213.277 216.495 198.892 216.495H54.7611C22.1873 216.495 23.8497 170.295 54.7611 170.063H103.195H36.3825C1.82102 170.071 2.73005 123.678 36.3795 123.632C61.3898 123.668 84.1282 123.632 97.6953 123.632H47.2953C18.647 123.632 17.5626 77.2002 47.2953 77.2002H65.3992ZM65.3992 77.2002H111.337" stroke="#0A2D57" stroke-width="20" stroke-linecap="round" stroke-linejoin="round"/>
<path d="M60.5647 216.391L60.5647 266.521C60.5647 310.097 31.5452 329.978 31.5451 373.095C31.5448 409.244 31.5449 456.434 31.545 485.444L31.5451 506.588C31.5451 540.04 77.9765 538.074 77.9765 506.588V524.692C77.9765 554.425 124.408 553.34 124.408 524.692V474.292C124.408 487.859 124.444 510.598 124.408 535.608C124.454 569.257 170.848 570.166 170.839 535.605V517.226C171.071 548.138 217.271 549.8 217.271 517.226V373.095C217.271 358.71 234.683 358.489 234.683 373.095H279.18C277.761 325.488 241.645 297.568 208.565 295.709C198.892 295.166 198.892 288.857 198.892 282.201V282.167V216.389H140.211L60.5647 216.391Z" fill="white"/>
<path d="M77.9765 506.588C77.9765 538.074 31.5451 540.04 31.5451 506.588C31.5451 487.384 31.5448 420.675 31.5451 373.095C31.5452 329.978 60.5647 310.097 60.5647 266.521C60.5647 251.836 60.5647 238.549 60.5647 216.391L140.211 216.389H198.892C198.892 216.389 198.892 262.119 198.892 282.167C198.892 288.835 198.875 295.165 208.565 295.709C241.645 297.568 277.761 325.488 279.18 373.095H234.683C234.683 358.489 217.271 358.71 217.271 373.095V517.226C217.271 549.8 171.071 548.138 170.839 517.226V468.792V535.605C170.848 570.166 124.454 569.257 124.408 535.608C124.444 510.598 124.408 487.859 124.408 474.292V524.692C124.408 553.34 77.9765 554.425 77.9765 524.692V506.588ZM77.9765 506.588V460.65" stroke="#0A2D57" stroke-width="20" stroke-linecap="round" stroke-linejoin="round"/>
<path d="M512.383 354.821V304.691C512.383 261.115 541.402 241.234 541.402 198.117C541.402 161.968 541.402 114.778 541.402 85.7677L541.402 64.6238C541.402 31.1715 494.971 33.1383 494.971 64.6238V46.52C494.971 16.7872 448.539 17.8716 448.539 46.52V96.9199C448.539 83.3528 448.503 60.6144 448.539 35.6041C448.493 1.95466 402.099 1.04563 402.108 35.6071V53.9857C401.876 23.0743 355.676 21.4119 355.676 53.9857V198.117C355.676 212.502 338.265 212.723 338.265 198.117L293.768 198.117C295.186 245.724 331.302 273.644 364.382 275.503C374.056 276.046 374.056 282.355 374.056 289.011V289.045V354.823H432.736L512.383 354.821Z" fill="white"/>
<path d="M494.971 64.6238C494.971 33.1383 541.402 31.1715 541.402 64.6238C541.402 83.8281 541.403 150.537 541.402 198.117C541.402 241.234 512.383 261.115 512.383 304.691C512.383 319.376 512.383 332.663 512.383 354.821L432.736 354.823H374.056C374.056 354.823 374.056 309.093 374.056 289.045C374.056 282.377 374.072 276.047 364.382 275.503C331.302 273.644 295.186 245.724 293.768 198.117L338.265 198.117C338.265 212.723 355.676 212.502 355.676 198.117V53.9857C355.676 21.4119 401.876 23.0743 402.108 53.9857V102.42V35.6071C402.099 1.04563 448.493 1.95466 448.539 35.6041C448.503 60.6144 448.539 83.3528 448.539 96.9199V46.52C448.539 17.8716 494.971 16.7872 494.971 46.52V64.6238ZM494.971 64.6238V110.562" stroke="#0A2D57" stroke-width="20" stroke-linecap="round" stroke-linejoin="round"/>
<path d="M217.17 511.707H267.299C310.875 511.707 330.756 540.726 373.874 540.726C410.022 540.727 457.212 540.727 486.222 540.726L507.366 540.726C540.819 540.726 538.852 494.295 507.366 494.295H525.47C555.203 494.295 554.119 447.863 525.47 447.863H475.07C488.637 447.863 511.376 447.827 536.386 447.863C570.036 447.817 570.945 401.424 536.383 401.432H518.005C548.916 401.2 550.578 355.001 518.005 355.001H373.874C359.489 355.001 359.267 337.589 373.874 337.589V293.092C326.267 294.51 298.346 330.626 296.488 363.707C295.944 373.38 289.635 373.38 282.979 373.38H282.945H217.167V432.061L217.17 511.707Z" fill="white"/>
<path d="M507.366 494.295C538.852 494.295 540.819 540.726 507.366 540.726C488.162 540.726 421.453 540.727 373.874 540.726C330.756 540.726 310.875 511.707 267.3 511.707C252.614 511.707 239.327 511.707 217.17 511.707L217.167 432.061V373.38C217.167 373.38 262.897 373.38 282.945 373.38C289.614 373.38 295.943 373.396 296.488 363.707C298.346 330.626 326.267 294.51 373.874 293.092V337.589C359.267 337.589 359.489 355.001 373.874 355.001H518.005C550.578 355.001 548.916 401.2 518.005 401.432H469.57H536.383C570.945 401.424 570.036 447.817 536.386 447.863C511.376 447.827 488.637 447.863 475.07 447.863H525.47C554.119 447.863 555.203 494.295 525.47 494.295H507.366ZM507.366 494.295H461.428" stroke="#0A2D57" stroke-width="20" stroke-linecap="round" stroke-linejoin="round"/>
<path d="M403.682 208.924C404.299 200.818 416.183 200.818 416.8 208.924C417.724 221.071 427.378 230.724 439.525 231.648C447.63 232.265 447.63 244.149 439.525 244.766C427.378 245.69 417.724 255.344 416.8 267.491C416.183 275.596 404.299 275.596 403.682 267.491C402.758 255.344 393.105 245.69 380.958 244.766C372.853 244.149 372.853 232.265 380.958 231.648C393.105 230.724 402.758 221.071 403.682 208.924Z" fill="url(#paint1_linear_97_594)"/>
<path d="M395.257 208.282C396.655 189.912 423.391 189.769 425.185 207.852L425.223 208.282L425.255 208.656C426.029 216.466 432.303 222.626 440.165 223.224C458.679 224.633 458.679 251.78 440.165 253.189C432.178 253.797 425.83 260.145 425.223 268.132C423.813 286.645 396.666 286.645 395.257 268.132C394.65 260.145 388.302 253.797 380.315 253.189C361.801 251.78 361.801 224.633 380.315 223.224C388.302 222.616 394.65 216.269 395.257 208.282ZM416.799 208.923C416.182 200.818 404.298 200.818 403.681 208.923C402.757 221.07 393.103 230.724 380.956 231.648C372.851 232.265 372.851 244.148 380.956 244.765C393.103 245.69 402.757 255.344 403.681 267.491C404.289 275.469 415.813 275.593 416.761 267.864L416.799 267.491C417.708 255.533 427.077 245.992 438.956 244.816L439.524 244.765C447.502 244.158 447.626 232.634 439.897 231.685L439.524 231.648C427.377 230.724 417.723 221.07 416.799 208.923Z" fill="white"/>
<path d="M403.682 208.924C404.299 200.818 416.184 200.818 416.8 208.924C417.725 221.071 427.378 230.724 439.525 231.648C447.63 232.265 447.63 244.149 439.525 244.766L438.957 244.816C427.078 245.993 417.71 255.533 416.8 267.49L416.763 267.864C415.815 275.594 404.289 275.469 403.682 267.49C402.772 255.533 393.404 245.993 381.525 244.816L380.958 244.766C372.979 244.159 372.855 232.633 380.584 231.685L380.958 231.648C392.915 230.738 402.455 221.37 403.632 209.491L403.682 208.924ZM410.241 211.817C408.17 225.423 397.458 236.136 383.851 238.207C397.457 240.278 408.169 250.99 410.241 264.596C412.313 250.99 423.025 240.279 436.631 238.207C423.024 236.135 412.313 225.423 410.241 211.817Z" fill="white"/>
<path d="M403.682 208.924C404.299 200.818 416.184 200.818 416.8 208.924C417.725 221.071 427.378 230.724 439.525 231.648C447.63 232.265 447.63 244.149 439.525 244.766L438.957 244.816C427.078 245.993 417.71 255.533 416.8 267.49L416.763 267.864C415.815 275.594 404.289 275.469 403.682 267.49C402.772 255.533 393.404 245.993 381.525 244.816L380.958 244.766C372.979 244.159 372.855 232.633 380.584 231.685L380.958 231.648C392.915 230.738 402.455 221.37 403.632 209.491L403.682 208.924ZM410.241 211.817C408.17 225.423 397.458 236.136 383.851 238.207C397.457 240.278 408.169 250.99 410.241 264.596C412.313 250.99 423.025 240.279 436.631 238.207C423.024 236.135 412.313 225.423 410.241 211.817Z" fill="#0A2D57"/>
<path d="M339.261 128.423C340.136 116.911 357.016 116.911 357.892 128.423C359.204 145.675 372.915 159.385 390.167 160.698C401.678 161.574 401.678 178.453 390.167 179.329C372.915 180.642 359.204 194.352 357.892 211.604C357.016 223.116 340.136 223.116 339.261 211.604C337.948 194.352 324.237 180.642 306.985 179.329C295.474 178.453 295.474 161.574 306.985 160.698C324.237 159.385 337.948 145.675 339.261 128.423Z" fill="url(#paint2_linear_97_594)"/>
<path d="M329.996 127.717C331.743 104.756 365.411 104.756 367.159 127.717C368.123 140.393 378.197 150.467 390.873 151.432C413.835 153.179 413.834 186.847 390.873 188.594C378.197 189.559 368.123 199.633 367.159 212.308C365.411 235.27 331.743 235.27 329.996 212.308C329.031 199.633 318.958 189.559 306.282 188.594C283.32 186.847 283.32 153.179 306.282 151.432C318.958 150.467 329.031 140.393 329.996 127.717ZM357.893 128.422C357.017 116.911 340.138 116.911 339.262 128.422C337.949 145.674 324.239 159.384 306.986 160.697C295.475 161.573 295.475 178.453 306.986 179.329C324.239 180.641 337.949 194.352 339.262 211.604C340.124 222.935 356.493 223.112 357.84 212.135L357.893 211.604C359.185 194.621 372.491 181.07 389.362 179.399L390.168 179.329C401.5 178.466 401.677 162.097 390.7 160.75L390.168 160.697C373.186 159.405 359.635 146.1 357.963 129.228L357.893 128.422Z" fill="white"/>
<path d="M339.26 128.423C340.136 116.911 357.016 116.911 357.892 128.423C359.205 145.675 372.915 159.385 390.167 160.698C401.678 161.574 401.678 178.453 390.167 179.329L389.36 179.4C372.489 181.072 359.184 194.622 357.892 211.604L357.839 212.135C356.493 223.113 340.122 222.936 339.26 211.604C337.968 194.622 324.663 181.072 307.792 179.4L306.985 179.329C295.653 178.467 295.476 162.097 306.455 160.751L306.985 160.698C323.968 159.405 337.518 146.1 339.19 129.229L339.26 128.423ZM348.576 132.532C345.634 151.857 330.42 167.071 311.094 170.013C330.419 172.956 345.633 188.169 348.576 207.494C351.519 188.169 366.732 172.956 386.057 170.013C366.732 167.071 351.518 151.857 348.576 132.532Z" fill="white"/>
<path d="M339.26 128.423C340.136 116.911 357.016 116.911 357.892 128.423C359.205 145.675 372.915 159.385 390.167 160.698C401.678 161.574 401.678 178.453 390.167 179.329L389.36 179.4C372.489 181.072 359.184 194.622 357.892 211.604L357.839 212.135C356.493 223.113 340.122 222.936 339.26 211.604C337.968 194.622 324.663 181.072 307.792 179.4L306.985 179.329C295.653 178.467 295.476 162.097 306.455 160.751L306.985 160.698C323.968 159.405 337.518 146.1 339.19 129.229L339.26 128.423ZM348.576 132.532C345.634 151.857 330.42 167.071 311.094 170.013C330.419 172.956 345.633 188.169 348.576 207.494C351.519 188.169 366.732 172.956 386.057 170.013C366.732 167.071 351.518 151.857 348.576 132.532Z" fill="#0A2D57"/>
<path d="M3198.74 445.012H3416.21V551.152H3198.74V445.012Z" fill="#0A2D57"/>
<path d="M3176.22 551.152H3057.22V20.4502H3176.22V551.152ZM3035.59 551.151H2905.65L2866.41 445.011H2664.42L2625.18 551.151H2495.24L2709.45 20.4492H2821.38L3035.59 551.151ZM2765.41 206.129C2765.41 206.13 2759.19 245.829 2742.32 262.703C2725.44 279.577 2685.74 285.801 2685.74 285.801C2685.74 285.801 2725.44 292.024 2742.32 308.898C2759.19 325.772 2765.41 365.468 2765.41 365.473C2765.41 365.468 2771.64 325.772 2788.51 308.898C2805.39 292.025 2845.08 285.802 2845.09 285.801C2845.08 285.8 2805.38 279.576 2788.51 262.703C2771.64 245.829 2765.41 206.129 2765.41 206.129Z" fill="url(#paint3_linear_97_594)"/>
<path d="M2474.89 20.4502V551.152H2353.96V20.4502H2474.89Z" fill="#0A2D57"/>
<path d="M2152.02 441.795C2213.77 441.795 2256.23 408.988 2256.23 408.988L2307.69 511.912C2307.69 511.912 2248.51 560.801 2133.36 560.801C1983.48 560.801 1845.82 438.579 1845.82 286.766C1845.82 134.31 1982.84 10.8008 2133.36 10.8008C2248.51 10.8008 2307.69 59.6897 2307.69 59.6897L2256.23 162.614C2256.23 162.614 2213.77 129.807 2152.02 129.807C2030.44 129.807 1977.05 214.719 1977.05 285.479C1977.05 356.883 2030.44 441.795 2152.02 441.795Z" fill="#0A2D57"/>
<path d="M1281.7 285.479C1281.7 130.45 1403.28 10.8008 1549.3 10.8008C1696.61 10.8008 1816.26 130.45 1816.26 285.479C1816.26 440.508 1701.76 560.801 1549.3 560.801C1392.34 560.801 1281.7 440.508 1281.7 285.479ZM1412.28 285.479C1412.28 364.602 1450.24 443.725 1549.3 443.725C1645.79 443.725 1685.68 364.602 1685.68 285.479C1685.68 206.356 1643.22 127.234 1549.3 127.234C1456.03 127.234 1412.28 206.356 1412.28 285.479Z" fill="#0A2D57"/>
<path d="M1068.85 10.8008C1165.34 10.8008 1233.53 60.9762 1233.53 60.9762L1184.64 157.467C1184.64 157.467 1131.89 120.801 1077.22 120.801C1036.05 120.801 1014.17 139.456 1014.17 168.403C1014.17 197.994 1064.35 219.222 1124.82 244.953C1184 270.041 1248.97 320.216 1248.97 389.69C1248.97 516.415 1152.48 560.801 1048.91 560.801C924.759 560.801 849.496 490.684 849.496 490.684L909.964 389.046C909.964 389.046 980.724 448.871 1039.91 448.871C1066.28 448.871 1116.46 446.298 1116.46 396.766C1116.46 358.169 1059.85 340.801 996.806 309.28C933.122 277.76 895.812 228.228 895.812 172.906C895.812 73.8417 983.297 10.8008 1068.85 10.8008Z" fill="#0A2D57"/>
<defs>
<linearGradient id="paint0_linear_97_594" x1="245.388" y1="286.417" x2="332.879" y2="286.417" gradientUnits="userSpaceOnUse">
<stop stop-color="#4A98FF"/>
<stop offset="1" stop-color="#4BFFC0"/>
</linearGradient>
<linearGradient id="paint1_linear_97_594" x1="398.733" y1="238.207" x2="422.968" y2="238.207" gradientUnits="userSpaceOnUse">
<stop stop-color="#4A98FF"/>
<stop offset="1" stop-color="#4BFFC0"/>
</linearGradient>
<linearGradient id="paint2_linear_97_594" x1="330.401" y1="170.014" x2="367.636" y2="170.014" gradientUnits="userSpaceOnUse">
<stop stop-color="#4A98FF"/>
<stop offset="1" stop-color="#4BFFC0"/>
</linearGradient>
<linearGradient id="paint3_linear_97_594" x1="2456.36" y1="282.449" x2="3176.22" y2="285.8" gradientUnits="userSpaceOnUse">
<stop offset="0.0817308" stop-color="#4A98FF"/>
<stop offset="1" stop-color="#4BFFC0"/>
</linearGradient>
</defs>
</svg>
